<svg width="51" height="62" viewBox="0 0 51 62" fill="none" xmlns="http://www.w3.org/2000/svg">
<path d="M0.637573 26.6519C0.892573 35.4047 17.3188 53.8642 25.5001 61.9999C25.5001 61.9999 50.3626 36.1895 50.3626 26.6519H0.637573Z" fill="#54B948"/>
<ellipse cx="25.5" cy="22.4432" rx="25.5" ry="22.4432" fill="#54B948"/>
<path d="M37.9305 22.4427H13.068C12.3072 22.4427 11.5775 22.7467 11.0395 23.2879C10.5015 23.829 10.1993 24.5629 10.1993 25.3282C10.1993 26.0935 10.5015 26.8275 11.0395 27.3686C11.5775 27.9098 12.3072 28.2138 13.068 28.2138H37.9305C38.6913 28.2138 39.421 27.9098 39.959 27.3686C40.497 26.8275 40.7992 26.0935 40.7992 25.3282C40.7992 24.5629 40.497 23.829 39.959 23.2879C39.421 22.7467 38.6913 22.4427 37.9305 22.4427ZM38.8867 30.1375H12.1118C11.8582 30.1375 11.6149 30.2388 11.4356 30.4192C11.2563 30.5996 11.1555 30.8442 11.1555 31.0993V32.0612C11.1555 33.0816 11.5585 34.0602 12.2758 34.7817C12.9932 35.5032 13.9661 35.9086 14.9805 35.9086H36.018C37.0324 35.9086 38.0054 35.5032 38.7227 34.7817C39.44 34.0602 39.843 33.0816 39.843 32.0612V31.0993C39.843 30.8442 39.7422 30.5996 39.5629 30.4192C39.3836 30.2388 39.1404 30.1375 38.8867 30.1375ZM13.7039 20.519H37.2946C39.3607 20.519 40.559 17.8799 39.3756 15.9574C36.9742 12.0547 31.688 8.98282 25.4993 8.97681C19.3111 8.98282 14.0243 12.0547 11.6229 15.9568C10.4383 17.8793 11.6378 20.519 13.7039 20.519ZM33.1493 13.7861C33.3384 13.7861 33.5233 13.8425 33.6805 13.9482C33.8378 14.0538 33.9603 14.2041 34.0327 14.3798C34.1051 14.5556 34.124 14.749 34.0871 14.9355C34.0502 15.1221 33.9592 15.2935 33.8254 15.428C33.6917 15.5625 33.5213 15.6542 33.3358 15.6913C33.1503 15.7284 32.958 15.7093 32.7833 15.6365C32.6086 15.5637 32.4592 15.4405 32.3542 15.2823C32.2491 15.1241 32.193 14.9381 32.193 14.7479C32.193 14.4928 32.2937 14.2482 32.4731 14.0678C32.6524 13.8874 32.8956 13.7861 33.1493 13.7861ZM25.4993 11.8624C25.6884 11.8624 25.8733 11.9188 26.0305 12.0245C26.1878 12.1301 26.3103 12.2804 26.3827 12.4561C26.4551 12.6319 26.474 12.8253 26.4371 13.0119C26.4002 13.1984 26.3092 13.3698 26.1754 13.5043C26.0417 13.6389 25.8713 13.7305 25.6858 13.7676C25.5003 13.8047 25.3081 13.7856 25.1333 13.7128C24.9586 13.64 24.8092 13.5168 24.7042 13.3586C24.5991 13.2004 24.543 13.0144 24.543 12.8242C24.543 12.5691 24.6438 12.3245 24.8231 12.1441C25.0024 11.9637 25.2456 11.8624 25.4993 11.8624ZM17.8493 13.7861C18.0384 13.7861 18.2233 13.8425 18.3805 13.9482C18.5378 14.0538 18.6604 14.2041 18.7327 14.3798C18.8051 14.5556 18.824 14.749 18.7871 14.9355C18.7502 15.1221 18.6592 15.2935 18.5254 15.428C18.3917 15.5625 18.2213 15.6542 18.0358 15.6913C17.8503 15.7284 17.6581 15.7093 17.4833 15.6365C17.3086 15.5637 17.1593 15.4405 17.0542 15.2823C16.9491 15.1241 16.893 14.9381 16.893 14.7479C16.893 14.4928 16.9938 14.2482 17.1731 14.0678C17.3524 13.8874 17.5957 13.7861 17.8493 13.7861Z" fill="white"/>
</svg>
